<?xml version="1.0" encoding="UTF-8" standalone="no"?>
<!DOCTYPE svg PUBLIC "-//W3C//DTD SVG 1.1//EN"
 "http://www.w3.org/Graphics/SVG/1.1/DTD/svg11.dtd">
<!-- Generated by graphviz version 5.0.0 (20220707.1540)
 -->
<!-- Title: dependencies Pages: 1 -->
<svg width="848pt" height="174pt"
 viewBox="0.00 0.00 848.00 173.80" xmlns="http://www.w3.org/2000/svg" xmlns:xlink="http://www.w3.org/1999/xlink">
<g id="graph0" class="graph" transform="scale(1 1) rotate(0) translate(4 169.8)">
<title>dependencies</title>
<polygon fill="white" stroke="transparent" points="-4,4 -4,-169.8 844,-169.8 844,4 -4,4"/>
<text text-anchor="middle" x="420" y="-8.2" font-family="sans-serif" font-size="14.00">dependencies</text>
<g id="clust1" class="cluster">
<title>cluster_AppModule</title>
<polygon fill="none" stroke="black" stroke-dasharray="1,5" points="8,-32.8 8,-157.8 832,-157.8 832,-32.8 8,-32.8"/>
</g>
<g id="clust6" class="cluster">
<title>cluster_AppModule_providers</title>
<polygon fill="none" stroke="black" points="694,-40.8 694,-92.8 824,-92.8 824,-40.8 694,-40.8"/>
</g>
<g id="clust3" class="cluster">
<title>cluster_AppModule_imports</title>
<polygon fill="none" stroke="black" points="16,-40.8 16,-92.8 686,-92.8 686,-40.8 16,-40.8"/>
</g>
<!-- AuthModule -->
<g id="node1" class="node">
<title>AuthModule</title>
<polygon fill="#8dd3c7" stroke="black" points="677.55,-84.8 674.55,-88.8 653.55,-88.8 650.55,-84.8 590.45,-84.8 590.45,-48.8 677.55,-48.8 677.55,-84.8"/>
<text text-anchor="middle" x="634" y="-62.6" font-family="Times,serif" font-size="14.00">AuthModule</text>
</g>
<!-- AppModule -->
<g id="node7" class="node">
<title>AppModule</title>
<polygon fill="#8dd3c7" stroke="black" points="452.66,-149.8 449.66,-153.8 428.66,-153.8 425.66,-149.8 369.34,-149.8 369.34,-113.8 452.66,-113.8 452.66,-149.8"/>
<text text-anchor="middle" x="411" y="-127.6" font-family="Times,serif" font-size="14.00">AppModule</text>
</g>
<!-- AuthModule&#45;&gt;AppModule -->
<g id="edge1" class="edge">
<title>AuthModule&#45;&gt;AppModule</title>
<path fill="none" stroke="black" d="M634,-84.91C634,-104.14 634,-131.8 634,-131.8 634,-131.8 462.68,-131.8 462.68,-131.8"/>
<polygon fill="black" stroke="black" points="462.68,-128.3 452.68,-131.8 462.68,-135.3 462.68,-128.3"/>
</g>
<!-- GameModule -->
<g id="node2" class="node">
<title>GameModule</title>
<polygon fill="#8dd3c7" stroke="black" points="572.48,-84.8 569.48,-88.8 548.48,-88.8 545.48,-84.8 479.52,-84.8 479.52,-48.8 572.48,-48.8 572.48,-84.8"/>
<text text-anchor="middle" x="526" y="-62.6" font-family="Times,serif" font-size="14.00">GameModule</text>
</g>
<!-- GameModule&#45;&gt;AppModule -->
<g id="edge2" class="edge">
<title>GameModule&#45;&gt;AppModule</title>
<path fill="none" stroke="black" d="M526,-84.83C526,-101.2 526,-122.8 526,-122.8 526,-122.8 462.84,-122.8 462.84,-122.8"/>
<polygon fill="black" stroke="black" points="462.84,-119.3 452.84,-122.8 462.84,-126.3 462.84,-119.3"/>
</g>
<!-- GenderModule -->
<g id="node3" class="node">
<title>GenderModule</title>
<polygon fill="#8dd3c7" stroke="black" points="461.25,-84.8 458.25,-88.8 437.25,-88.8 434.25,-84.8 360.75,-84.8 360.75,-48.8 461.25,-48.8 461.25,-84.8"/>
<text text-anchor="middle" x="411" y="-62.6" font-family="Times,serif" font-size="14.00">GenderModule</text>
</g>
<!-- GenderModule&#45;&gt;AppModule -->
<g id="edge3" class="edge">
<title>GenderModule&#45;&gt;AppModule</title>
<path fill="none" stroke="black" d="M411,-84.91C411,-84.91 411,-103.79 411,-103.79"/>
<polygon fill="black" stroke="black" points="407.5,-103.79 411,-113.79 414.5,-103.79 407.5,-103.79"/>
</g>
<!-- PrismaModule -->
<g id="node4" class="node">
<title>PrismaModule</title>
<polygon fill="#8dd3c7" stroke="black" points="342.44,-84.8 339.44,-88.8 318.44,-88.8 315.44,-84.8 243.56,-84.8 243.56,-48.8 342.44,-48.8 342.44,-84.8"/>
<text text-anchor="middle" x="293" y="-62.6" font-family="Times,serif" font-size="14.00">PrismaModule</text>
</g>
<!-- PrismaModule&#45;&gt;AppModule -->
<g id="edge4" class="edge">
<title>PrismaModule&#45;&gt;AppModule</title>
<path fill="none" stroke="black" d="M293,-84.83C293,-101.2 293,-122.8 293,-122.8 293,-122.8 359.07,-122.8 359.07,-122.8"/>
<polygon fill="black" stroke="black" points="359.07,-126.3 369.07,-122.8 359.07,-119.3 359.07,-126.3"/>
</g>
<!-- ProfileModule -->
<g id="node5" class="node">
<title>ProfileModule</title>
<polygon fill="#8dd3c7" stroke="black" points="225.66,-84.8 222.66,-88.8 201.66,-88.8 198.66,-84.8 128.34,-84.8 128.34,-48.8 225.66,-48.8 225.66,-84.8"/>
<text text-anchor="middle" x="177" y="-62.6" font-family="Times,serif" font-size="14.00">ProfileModule</text>
</g>
<!-- ProfileModule&#45;&gt;AppModule -->
<g id="edge5" class="edge">
<title>ProfileModule&#45;&gt;AppModule</title>
<path fill="none" stroke="black" d="M177,-84.91C177,-104.14 177,-131.8 177,-131.8 177,-131.8 359.17,-131.8 359.17,-131.8"/>
<polygon fill="black" stroke="black" points="359.17,-135.3 369.17,-131.8 359.17,-128.3 359.17,-135.3"/>
</g>
<!-- UserModule -->
<g id="node6" class="node">
<title>UserModule</title>
<polygon fill="#8dd3c7" stroke="black" points="109.99,-84.8 106.99,-88.8 85.99,-88.8 82.99,-84.8 24.01,-84.8 24.01,-48.8 109.99,-48.8 109.99,-84.8"/>
<text text-anchor="middle" x="67" y="-62.6" font-family="Times,serif" font-size="14.00">UserModule</text>
</g>
<!-- UserModule&#45;&gt;AppModule -->
<g id="edge6" class="edge">
<title>UserModule&#45;&gt;AppModule</title>
<path fill="none" stroke="black" d="M67,-85.09C67,-107.01 67,-140.8 67,-140.8 67,-140.8 359.16,-140.8 359.16,-140.8"/>
<polygon fill="black" stroke="black" points="359.16,-144.3 369.16,-140.8 359.16,-137.3 359.16,-144.3"/>
</g>
<!-- AppService -->
<g id="node8" class="node">
<title>AppService</title>
<ellipse fill="#fdb462" stroke="black" cx="759" cy="-66.8" rx="56.75" ry="18"/>
<text text-anchor="middle" x="759" y="-62.6" font-family="Times,serif" font-size="14.00">AppService</text>
</g>
<!-- AppService&#45;&gt;AppModule -->
<g id="edge7" class="edge">
<title>AppService&#45;&gt;AppModule</title>
<path fill="none" stroke="black" d="M759,-85.09C759,-107.01 759,-140.8 759,-140.8 759,-140.8 462.98,-140.8 462.98,-140.8"/>
<polygon fill="black" stroke="black" points="462.98,-137.3 452.98,-140.8 462.98,-144.3 462.98,-137.3"/>
</g>
</g>
</svg>
